<svg width="239" height="58" viewBox="0 0 239 58" fill="none" xmlns="http://www.w3.org/2000/svg">
<g clip-path="url(#clip0_10_77)">
<path d="M28.9995 2.85501e-05C35.7114 -0.00189001 42.2162 2.32364 47.4056 6.58033C52.595 10.837 56.1479 16.7615 57.4586 23.3441C58.7694 29.9267 57.7571 36.7602 54.5941 42.6801C51.4312 48.6 46.3133 53.2399 40.1127 55.8093C33.912 58.3786 27.0123 58.7183 20.5893 56.7705C14.1662 54.8228 8.61732 50.708 4.88812 45.1275C1.15892 39.5469 -0.519811 32.8459 0.137993 26.1664C0.795797 19.4868 3.74943 13.242 8.49558 8.49612C11.1845 5.79827 14.3803 3.65875 17.8992 2.20066C21.418 0.74256 25.1905 -0.00532603 28.9995 2.85501e-05ZM24.8034 27.5746C26.1816 26.6306 26.8755 25.3986 26.7575 22.5808V15.3355C26.7575 14.3254 24.9072 14.2027 24.8175 15.3355L24.7467 21.2119C24.7467 21.431 24.6597 21.6411 24.5048 21.796C24.3499 21.9509 24.1398 22.038 23.9207 22.038C23.7016 22.038 23.4915 21.9509 23.3366 21.796C23.1817 21.6411 23.0947 21.431 23.0947 21.2119L23.1655 15.1325C23.1655 14.0469 21.386 13.9383 21.3672 15.1325C21.3672 16.8223 21.2964 19.5269 21.2964 21.2119C21.3132 21.3146 21.3075 21.4197 21.2796 21.5199C21.2518 21.6202 21.2025 21.7132 21.1351 21.7924C21.0678 21.8717 20.984 21.9354 20.8896 21.9791C20.7952 22.0228 20.6924 22.0454 20.5884 22.0454C20.4843 22.0454 20.3815 22.0228 20.2871 21.9791C20.1927 21.9354 20.1089 21.8717 20.0416 21.7924C19.9742 21.7132 19.9249 21.6202 19.8971 21.5199C19.8692 21.4197 19.8635 21.3146 19.8803 21.2119L19.9511 15.175C19.9363 15.0029 19.8765 14.8377 19.7778 14.696C19.6791 14.5543 19.5449 14.4409 19.3886 14.3673C19.2324 14.2938 19.0595 14.2625 18.8874 14.2767C18.7152 14.2908 18.5498 14.3499 18.4077 14.4481C17.7563 14.8635 17.8885 15.6989 17.8602 16.4069L17.6336 23.3407C17.6666 25.3561 18.1953 26.994 19.7765 27.6926C20.0798 27.8131 20.3969 27.8955 20.7205 27.938L20.1871 42.1265C20.1809 42.3615 20.2214 42.5955 20.3063 42.8147C20.3912 43.034 20.5188 43.2342 20.6817 43.4037C20.8446 43.5732 21.0396 43.7086 21.2553 43.8021C21.471 43.8957 21.7032 43.9454 21.9383 43.9484H22.1554C22.4195 43.9441 22.68 43.8876 22.9221 43.7822C23.1642 43.6767 23.3831 43.5244 23.566 43.334C23.749 43.1436 23.8925 42.9188 23.9882 42.6727C24.0839 42.4266 24.1299 42.1639 24.1237 41.8999L23.6517 27.9333C24.0569 27.8904 24.4497 27.7685 24.8081 27.5746H24.8034ZM33.2995 41.6167L33.2759 29.1511C27.9469 26.0736 29.6461 14.2168 34.9751 14.2829C41.451 14.3584 42.2204 27.6454 36.6507 29.1039L37.0613 41.6781C37.1416 44.5715 33.2853 44.8405 33.2853 41.6167H33.2995ZM46.8649 11.1346C42.7288 7.00603 37.2892 4.43918 31.4728 3.87137C25.6564 3.30356 19.8231 4.76993 14.9666 8.02066C10.1101 11.2714 6.53092 16.1054 4.83878 21.6991C3.14665 27.2927 3.44626 33.3001 5.68657 38.6977C7.92688 44.0952 11.9693 48.5491 17.1251 51.3005C22.281 54.0518 28.2312 54.9305 33.9623 53.7868C39.6933 52.6431 44.8505 49.5477 48.5553 45.0281C52.2601 40.5084 54.2832 34.8441 54.2801 29C54.2824 25.6804 53.6285 22.3931 52.3559 19.3271C51.0834 16.2611 49.2172 13.4769 46.8649 11.1346Z" fill="#E21B70"/>
</g>
<path d="M78.816 21.08V24.824H72.048V27.8H77.04V31.376H72.048V38H67.344V21.08H78.816ZM88.9091 38.168C87.3251 38.168 85.8691 37.8 84.5411 37.064C83.2131 36.312 82.1571 35.28 81.3731 33.968C80.6051 32.64 80.2211 31.144 80.2211 29.48C80.2211 27.816 80.6051 26.328 81.3731 25.016C82.1571 23.688 83.2131 22.656 84.5411 21.92C85.8691 21.184 87.3251 20.816 88.9091 20.816C90.5091 20.816 91.9651 21.184 93.2771 21.92C94.6051 22.656 95.6531 23.688 96.4211 25.016C97.1891 26.328 97.5731 27.816 97.5731 29.48C97.5731 31.144 97.1891 32.64 96.4211 33.968C95.6531 35.28 94.6051 36.312 93.2771 37.064C91.9491 37.8 90.4931 38.168 88.9091 38.168ZM88.9091 33.8C90.1091 33.8 91.0531 33.408 91.7411 32.624C92.4451 31.84 92.7971 30.792 92.7971 29.48C92.7971 28.136 92.4451 27.08 91.7411 26.312C91.0531 25.528 90.1091 25.136 88.9091 25.136C87.6931 25.136 86.7411 25.528 86.0531 26.312C85.3651 27.08 85.0211 28.136 85.0211 29.48C85.0211 30.808 85.3651 31.864 86.0531 32.648C86.7411 33.416 87.6931 33.8 88.9091 33.8ZM107.8 38.168C106.216 38.168 104.76 37.8 103.432 37.064C102.104 36.312 101.048 35.28 100.264 33.968C99.4958 32.64 99.1118 31.144 99.1118 29.48C99.1118 27.816 99.4958 26.328 100.264 25.016C101.048 23.688 102.104 22.656 103.432 21.92C104.76 21.184 106.216 20.816 107.8 20.816C109.4 20.816 110.856 21.184 112.168 21.92C113.496 22.656 114.544 23.688 115.312 25.016C116.08 26.328 116.464 27.816 116.464 29.48C116.464 31.144 116.08 32.64 115.312 33.968C114.544 35.28 113.496 36.312 112.168 37.064C110.84 37.8 109.384 38.168 107.8 38.168ZM107.8 33.8C109 33.8 109.944 33.408 110.632 32.624C111.336 31.84 111.688 30.792 111.688 29.48C111.688 28.136 111.336 27.08 110.632 26.312C109.944 25.528 109 25.136 107.8 25.136C106.584 25.136 105.632 25.528 104.944 26.312C104.256 27.08 103.912 28.136 103.912 29.48C103.912 30.808 104.256 31.864 104.944 32.648C105.632 33.416 106.584 33.8 107.8 33.8ZM125.274 21.08C127.05 21.08 128.602 21.44 129.93 22.16C131.274 22.864 132.306 23.856 133.026 25.136C133.746 26.416 134.106 27.88 134.106 29.528C134.106 31.16 133.738 32.616 133.002 33.896C132.282 35.176 131.25 36.184 129.906 36.92C128.578 37.64 127.034 38 125.274 38H118.578V21.08H125.274ZM124.914 33.848C126.29 33.848 127.37 33.472 128.154 32.72C128.938 31.968 129.33 30.904 129.33 29.528C129.33 28.136 128.938 27.064 128.154 26.312C127.37 25.544 126.29 25.16 124.914 25.16H123.282V33.848H124.914ZM147.027 29.312C148.019 29.536 148.803 30.032 149.379 30.8C149.971 31.552 150.267 32.416 150.267 33.392C150.267 34.832 149.771 35.96 148.779 36.776C147.787 37.592 146.395 38 144.603 38H136.227V21.08H144.339C146.067 21.08 147.419 21.464 148.395 22.232C149.387 23 149.883 24.08 149.883 25.472C149.883 26.464 149.619 27.296 149.091 27.968C148.579 28.624 147.891 29.072 147.027 29.312ZM140.931 27.8H143.307C144.491 27.8 145.083 27.312 145.083 26.336C145.083 25.328 144.491 24.824 143.307 24.824H140.931V27.8ZM143.667 34.208C144.851 34.208 145.443 33.712 145.443 32.72C145.443 32.208 145.283 31.816 144.963 31.544C144.659 31.272 144.219 31.136 143.643 31.136H140.931V34.208H143.667ZM163.032 35.24H157.032L156.12 38H151.176L157.344 21.08H162.768L168.912 38H163.944L163.032 35.24ZM161.856 31.64L160.032 26.168L158.232 31.64H161.856ZM175.582 34.184H182.614V38H170.302V34.424L177.262 24.872H170.302V21.08H182.614V24.656L175.582 34.184ZM195.868 35.24H189.868L188.956 38H184.012L190.18 21.08H195.604L201.748 38H196.78L195.868 35.24ZM194.692 31.64L192.868 26.168L191.068 31.64H194.692ZM213.986 35.24H207.986L207.074 38H202.13L208.298 21.08H213.722L219.866 38H214.898L213.986 35.24ZM212.81 31.64L210.986 26.168L209.186 31.64H212.81ZM229.967 38L226.607 31.76H226.103V38H221.399V21.08H228.815C230.175 21.08 231.327 21.32 232.271 21.8C233.215 22.264 233.927 22.912 234.407 23.744C234.887 24.56 235.127 25.48 235.127 26.504C235.127 27.656 234.807 28.672 234.167 29.552C233.543 30.416 232.623 31.032 231.407 31.4L235.223 38H229.967ZM226.103 28.544H228.431C229.071 28.544 229.551 28.392 229.871 28.088C230.191 27.784 230.351 27.344 230.351 26.768C230.351 26.224 230.183 25.8 229.847 25.496C229.527 25.176 229.055 25.016 228.431 25.016H226.103V28.544Z" fill="white"/>
<path d="M191.033 8H61.9666C60.3267 8 59 7.10404 59 5.99651C59 4.8889 60.3267 4 61.9666 4H191.033C192.674 4 194 4.89595 194 5.99651C194 7.10404 192.674 8 191.033 8Z" fill="#E21B70"/>
<path d="M233.033 55.5H103.967C102.327 55.5 101 54.604 101 53.4965C101 52.3889 102.327 51.5 103.967 51.5H233.033C234.674 51.5 236 52.396 236 53.4965C236 54.604 234.674 55.5 233.033 55.5Z" fill="#E21B70"/>
<defs>
<clipPath id="clip0_10_77">
<rect width="58" height="58" fill="white"/>
</clipPath>
</defs>
</svg>
