<svg width="20" height="20" viewBox="0 0 20 20" fill="none" xmlns="http://www.w3.org/2000/svg">
<g clip-path="url(#clip0_2_5)">
<path d="M9.99992 -5.11903e-05C12.3144 -0.000712761 14.5574 0.801194 16.3469 2.26902C18.1363 3.73684 19.3614 5.77976 19.8134 8.04963C20.2654 10.3195 19.9163 12.6759 18.8257 14.7172C17.735 16.7586 15.9702 18.3585 13.8321 19.2445C11.6939 20.1305 9.31469 20.2476 7.09985 19.576C4.88501 18.9043 2.97159 17.4855 1.68566 15.5611C0.399729 13.6368 -0.179144 11.3261 0.0476847 9.02283C0.274514 6.71953 1.29301 4.56615 2.92961 2.92964C3.85681 1.99934 4.95882 1.26158 6.17222 0.758786C7.38563 0.255994 8.68648 -0.0018976 9.99992 -5.11903e-05ZM8.55298 9.50841C9.02824 9.18289 9.2675 8.75809 9.22681 7.78641V5.28804C9.22681 4.93973 8.58879 4.89741 8.55787 5.28804L8.53345 7.3144C8.53345 7.38994 8.50344 7.46239 8.45003 7.51581C8.39661 7.56922 8.32416 7.59923 8.24862 7.59923C8.17308 7.59923 8.10063 7.56922 8.04722 7.51581C7.9938 7.46239 7.96379 7.38994 7.96379 7.3144L7.9882 5.21805C7.9882 4.8437 7.3746 4.80626 7.36809 5.21805C7.36809 5.80073 7.34367 6.73335 7.34367 7.3144C7.34947 7.3498 7.34751 7.38604 7.33791 7.42061C7.32831 7.45517 7.31131 7.48723 7.28808 7.51457C7.26486 7.54191 7.23596 7.56387 7.20341 7.57894C7.17085 7.594 7.13541 7.6018 7.09953 7.6018C7.06366 7.6018 7.02822 7.594 6.99566 7.57894C6.9631 7.56387 6.93421 7.54191 6.91098 7.51457C6.88776 7.48723 6.87076 7.45517 6.86116 7.42061C6.85156 7.38604 6.84959 7.3498 6.85539 7.3144L6.87981 5.2327C6.87469 5.17336 6.85407 5.1164 6.82003 5.06753C6.78599 5.01865 6.73971 4.97957 6.68583 4.9542C6.63195 4.92882 6.57234 4.91804 6.51298 4.92292C6.45362 4.92781 6.39659 4.9482 6.34758 4.98205C6.12297 5.12527 6.16854 5.41336 6.15878 5.6575L6.08065 8.04845C6.09205 8.74344 6.27434 9.30822 6.81959 9.5491C6.92418 9.59065 7.03352 9.61908 7.14511 9.63374L6.96119 14.5263C6.95902 14.6074 6.97299 14.688 7.00226 14.7636C7.03154 14.8392 7.07554 14.9083 7.13173 14.9667C7.18791 15.0252 7.25514 15.0719 7.32953 15.1041C7.40391 15.1364 7.48396 15.1535 7.56503 15.1546H7.6399C7.73095 15.1531 7.8208 15.1336 7.90429 15.0972C7.98777 15.0609 8.06323 15.0084 8.12632 14.9427C8.18941 14.877 8.23889 14.7995 8.27189 14.7147C8.30489 14.6298 8.32077 14.5392 8.31861 14.4482L8.15585 9.63211C8.29557 9.61731 8.43104 9.57529 8.55461 9.50841H8.55298ZM11.4827 14.3505L11.4745 10.052C9.63697 8.99083 10.2229 4.90229 12.0605 4.92508C14.2935 4.95112 14.5588 9.53283 12.6383 10.0358L12.7799 14.3717C12.8075 15.3694 11.4778 15.4622 11.4778 14.3505H11.4827ZM16.1604 3.83947C14.7342 2.41581 12.8584 1.53069 10.8528 1.33489C8.84714 1.1391 6.83565 1.64474 5.161 2.76568C3.48635 3.88662 2.25214 5.55351 1.66865 7.48237C1.08515 9.41123 1.18847 11.4827 1.96099 13.344C2.73351 15.2052 4.12744 16.741 5.90532 17.6898C7.68319 18.6385 9.73501 18.9415 11.7112 18.5471C13.6874 18.1527 15.4658 17.0854 16.7433 15.5269C18.0208 13.9684 18.7185 12.0151 18.7174 9.99995C18.7182 8.85526 18.4927 7.72169 18.0539 6.66445C17.6151 5.60721 16.9716 4.64715 16.1604 3.83947Z" fill="#E21B70"/>
</g>
<defs>
<clipPath id="clip0_2_5">
<rect width="20" height="20" fill="white"/>
</clipPath>
</defs>
</svg>
