<svg width="20" height="20" viewBox="0 0 20 20" fill="none" xmlns="http://www.w3.org/2000/svg">
<g clip-path="url(#clip0_2_5)">
<path d="M9.99998 -5.11903e-05C12.3144 -0.000712761 14.5575 0.801194 16.3469 2.26902C18.1364 3.73684 19.3615 5.77976 19.8135 8.04963C20.2655 10.3195 19.9164 12.6759 18.8257 14.7172C17.735 16.7586 15.9703 18.3585 13.8321 19.2445C11.694 20.1305 9.31475 20.2476 7.09991 19.576C4.88507 18.9043 2.97165 17.4855 1.68572 15.5611C0.39979 13.6368 -0.179083 11.3261 0.0477458 9.02283C0.274575 6.71953 1.29307 4.56615 2.92967 2.92964C3.85687 1.99934 4.95888 1.26158 6.17228 0.758786C7.38569 0.255994 8.68654 -0.0018976 9.99998 -5.11903e-05ZM8.55304 9.50841C9.02831 9.18289 9.26756 8.75809 9.22687 7.78641V5.28804C9.22687 4.93973 8.58885 4.89741 8.55793 5.28804L8.53351 7.3144C8.53351 7.38994 8.5035 7.46239 8.45009 7.51581C8.39667 7.56922 8.32422 7.59923 8.24868 7.59923C8.17314 7.59923 8.10069 7.56922 8.04728 7.51581C7.99386 7.46239 7.96385 7.38994 7.96385 7.3144L7.98827 5.21805C7.98827 4.8437 7.37466 4.80626 7.36815 5.21805C7.36815 5.80073 7.34373 6.73335 7.34373 7.3144C7.34953 7.3498 7.34757 7.38604 7.33797 7.42061C7.32837 7.45517 7.31137 7.48723 7.28814 7.51457C7.26492 7.54191 7.23602 7.56387 7.20347 7.57894C7.17091 7.594 7.13547 7.6018 7.09959 7.6018C7.06372 7.6018 7.02828 7.594 6.99572 7.57894C6.96316 7.56387 6.93427 7.54191 6.91105 7.51457C6.88782 7.48723 6.87082 7.45517 6.86122 7.42061C6.85162 7.38604 6.84965 7.3498 6.85545 7.3144L6.87987 5.2327C6.87475 5.17336 6.85413 5.1164 6.82009 5.06753C6.78605 5.01865 6.73978 4.97957 6.68589 4.9542C6.63201 4.92882 6.5724 4.91804 6.51304 4.92292C6.45369 4.92781 6.39665 4.9482 6.34764 4.98205C6.12303 5.12527 6.1686 5.41336 6.15884 5.6575L6.08071 8.04845C6.09211 8.74344 6.2744 9.30822 6.81965 9.5491C6.92424 9.59065 7.03358 9.61908 7.14517 9.63374L6.96125 14.5263C6.95908 14.6074 6.97305 14.688 7.00232 14.7636C7.0316 14.8392 7.07561 14.9083 7.13179 14.9667C7.18797 15.0252 7.2552 15.0719 7.32959 15.1041C7.40397 15.1364 7.48402 15.1535 7.56509 15.1546H7.63996C7.73101 15.1531 7.82086 15.1336 7.90435 15.0972C7.98783 15.0609 8.0633 15.0084 8.12639 14.9427C8.18948 14.877 8.23895 14.7995 8.27195 14.7147C8.30495 14.6298 8.32083 14.5392 8.31867 14.4482L8.15591 9.63211C8.29563 9.61731 8.4311 9.57529 8.55467 9.50841H8.55304ZM11.4827 14.3505L11.4746 10.052C9.63703 8.99083 10.223 4.90229 12.0605 4.92508C14.2936 4.95112 14.5589 9.53283 12.6383 10.0358L12.7799 14.3717C12.8076 15.3694 11.4778 15.4622 11.4778 14.3505H11.4827ZM16.1605 3.83947C14.7342 2.41581 12.8585 1.53069 10.8529 1.33489C8.8472 1.1391 6.83571 1.64474 5.16106 2.76568C3.48641 3.88662 2.2522 5.55351 1.66871 7.48237C1.08521 9.41123 1.18853 11.4827 1.96105 13.344C2.73357 15.2052 4.1275 16.741 5.90538 17.6898C7.68325 18.6385 9.73507 18.9415 11.7113 18.5471C13.6875 18.1527 15.4658 17.0854 16.7434 15.5269C18.0209 13.9684 18.7185 12.0151 18.7174 9.99995C18.7182 8.85526 18.4928 7.72169 18.0539 6.66445C17.6151 5.60721 16.9716 4.64715 16.1605 3.83947Z" fill="#E21B70"/>
</g>
<defs>
<clipPath id="clip0_2_5">
<rect width="20" height="20" fill="white"/>
</clipPath>
</defs>
</svg>
