<svg xmlns="http://www.w3.org/2000/svg" width="144" height="40" fill="none"><g fill="#007DFC" clip-path="url(#a)"><path fill-rule="evenodd" d="M25.556 11.685A10 10 0 0 0 20 10V0A20 20 0 1 1 0 20h10a10 10 0 1 0 15.556-8.315z" clip-rule="evenodd"><path fill-rule="evenodd" d="M10 0A10 10 0 0 1 0 10v10A20 20 0 0 0 20 0H10z" clip-rule="evenodd"><path d="M73.042 14.453H68.19v15.412h4.852V14.453zm-4.312-2.886c.507.507 1.141.76 1.902.76.761 0 1.385-.253 1.871-.76.487-.529.73-1.163.73-1.903 0-.761-.243-1.396-.73-1.903-.486-.507-1.11-.761-1.871-.761-.761 0-1.395.254-1.902.761-.487.507-.73 1.142-.73 1.903 0 .74.243 1.374.73 1.903zM51.156 29.865V7.475h4.98V25.49h9.925v4.376H51.156z"><path fill-rule="evenodd" d="M78.076 35.89c1.29.592 2.78.888 4.472.888 1.649 0 3.118-.328 4.408-.983 1.29-.655 2.304-1.564 3.044-2.727.74-1.163 1.11-2.537 1.11-4.123V14.453h-4.757v1.035a5.127 5.127 0 0 0-1.205-.75c-.825-.402-1.765-.603-2.822-.603-1.417 0-2.675.339-3.774 1.015-1.1.655-1.966 1.565-2.6 2.727-.635 1.142-.952 2.432-.952 3.87 0 1.416.317 2.706.951 3.868a7.255 7.255 0 0 0 2.6 2.76c1.1.676 2.358 1.014 3.775 1.014 1.036 0 1.976-.2 2.822-.602.41-.195.78-.424 1.11-.688v.973c0 1.078-.349 1.913-1.047 2.505-.676.592-1.617.888-2.822.888-.972 0-1.808-.169-2.505-.507-.677-.338-1.29-.835-1.84-1.49l-2.98 2.98c.74 1.057 1.744 1.871 3.012 2.442zm6.913-11.258c-.486.296-1.067.444-1.744.444-.676 0-1.268-.148-1.776-.444a3.129 3.129 0 0 1-1.141-1.205 3.592 3.592 0 0 1-.413-1.68c0-.635.138-1.206.413-1.713a3.06 3.06 0 0 1 1.173-1.205c.507-.296 1.089-.444 1.744-.444.677 0 1.258.148 1.744.444a2.85 2.85 0 0 1 1.142 1.205c.275.507.412 1.078.412 1.712 0 .635-.137 1.205-.412 1.713a2.9 2.9 0 0 1-1.142 1.173zm16.447 5.582c-1.586 0-3.024-.35-4.313-1.047a8.141 8.141 0 0 1-3.013-2.918c-.74-1.226-1.11-2.6-1.11-4.122 0-1.522.37-2.886 1.11-4.091a7.978 7.978 0 0 1 3.013-2.854c1.268-.719 2.706-1.078 4.313-1.078 1.606 0 3.044.349 4.312 1.046a7.901 7.901 0 0 1 3.013 2.886c.74 1.205 1.11 2.569 1.11 4.09 0 1.523-.37 2.897-1.11 4.123a8.141 8.141 0 0 1-3.013 2.918c-1.268.698-2.706 1.047-4.312 1.047zm0-4.408c.697 0 1.31-.148 1.839-.444a3.11 3.11 0 0 0 1.205-1.3c.296-.571.444-1.216.444-1.935 0-.719-.148-1.343-.444-1.871a3.107 3.107 0 0 0-1.237-1.269c-.507-.317-1.11-.475-1.807-.475-.677 0-1.28.158-1.808.475a3.107 3.107 0 0 0-1.237 1.269c-.296.55-.444 1.184-.444 1.903 0 .697.148 1.332.444 1.902.296.55.708.983 1.237 1.3.528.297 1.131.445 1.808.445zm19.443 4.376c-1.035 0-1.987-.2-2.854-.603a6.063 6.063 0 0 1-1.236-.757v7.544H112V14.453h4.852v1.063a6 6 0 0 1 1.173-.746c.867-.423 1.819-.635 2.854-.635 1.459 0 2.749.35 3.869 1.047a7.214 7.214 0 0 1 2.664 2.854c.656 1.205.983 2.58.983 4.123 0 1.543-.327 2.917-.983 4.122a7.215 7.215 0 0 1-2.664 2.854c-1.12.698-2.41 1.047-3.869 1.047zm-.887-4.376c.697 0 1.3-.159 1.807-.476a3.32 3.32 0 0 0 1.237-1.3c.296-.55.444-1.174.444-1.871 0-.72-.148-1.353-.444-1.903a3.107 3.107 0 0 0-1.237-1.269c-.507-.317-1.099-.475-1.776-.475-.676 0-1.279.158-1.807.475a3.168 3.168 0 0 0-1.205 1.269c-.296.55-.444 1.184-.444 1.903 0 .697.137 1.321.412 1.87.296.55.708.984 1.237 1.3.528.318 1.12.477 1.776.477z" clip-rule="evenodd"><path d="M134.345 29.896c.888.233 1.786.35 2.695.35 1.924 0 3.446-.445 4.567-1.333 1.141-.887 1.712-2.082 1.712-3.583 0-.973-.179-1.755-.539-2.347a4.194 4.194 0 0 0-1.395-1.459 8.33 8.33 0 0 0-1.808-.856 27.898 27.898 0 0 0-1.807-.539c-.571-.148-1.036-.317-1.396-.507-.359-.19-.539-.444-.539-.762 0-.296.138-.517.412-.665.275-.17.687-.254 1.237-.254.571 0 1.152.116 1.744.349.613.232 1.163.634 1.649 1.205l2.759-2.79c-.697-.889-1.606-1.555-2.727-1.999-1.099-.465-2.304-.697-3.615-.697-1.247 0-2.336.21-3.266.634-.931.423-1.65 1.004-2.157 1.744-.507.719-.761 1.575-.761 2.569 0 .93.18 1.702.539 2.315a4.01 4.01 0 0 0 1.395 1.395 8.103 8.103 0 0 0 1.808.793c.634.19 1.237.37 1.808.539.57.148 1.036.328 1.395.54.381.19.571.475.571.855 0 .296-.159.529-.476.698-.296.17-.729.254-1.3.254a5.78 5.78 0 0 1-2.283-.444 5.56 5.56 0 0 1-1.808-1.3L130 27.39a8.61 8.61 0 0 0 1.903 1.522c.761.423 1.575.75 2.442.983z"></g><defs><clipPath id="a"><path fill="#fff" d="M0 0h144v40H0z"></clipPath></defs></svg>