<svg xmlns="http://www.w3.org/2000/svg" width="111" height="40" fill="none"><g clip-path="url(#a)"><path fill="#243A5A" d="M51.582 10.284H48v16.163h9.916V23.28h-6.334V10.284zm33.462 10.351c0 3.298 2.14 5.526 5.176 5.526 1.464 0 2.73-.524 3.364-1.376v1.507c0 1.507-.94 2.512-2.6 2.512-1.484 0-2.511-.699-2.577-1.944H85c.306 2.993 2.621 5.002 5.788 5.002 3.735 0 6.094-2.424 6.094-6.269V15.371h-3.036l-.175 1.114C93.06 15.59 91.771 15 90.286 15c-3.058 0-5.242 2.293-5.242 5.635zm3.407-.087c0-1.573 1.049-2.621 2.38-2.621 1.552 0 2.688 1.026 2.688 2.62 0 1.595-1.115 2.688-2.665 2.688-1.333 0-2.403-1.093-2.403-2.687zM99 20.766c0 3.452 2.315 5.745 5.81 5.745 3.473 0 5.788-2.293 5.788-5.745 0-3.45-2.315-5.766-5.788-5.766-3.495 0-5.81 2.315-5.81 5.766zm3.386-.021c0-1.639.961-2.73 2.424-2.73 1.442 0 2.403 1.091 2.403 2.73 0 1.66-.961 2.752-2.403 2.752-1.463 0-2.424-1.092-2.424-2.753zm-40.464-6.923c1.049 0 1.9-.851 1.9-1.922 0-1.07-.852-1.9-1.9-1.9-1.07 0-1.922.83-1.922 1.9 0 1.07.852 1.922 1.922 1.922zm-1.704 12.625h3.386v-10.92h-3.386v10.92zm9.168 0v-5.963c0-1.835.983-2.359 1.944-2.359 1.07 0 1.769.656 1.769 2.01v6.312h3.32v-5.963c0-1.856.961-2.38 1.922-2.38 1.07 0 1.791.655 1.791 2.03v6.313h3.277v-7.142c0-2.49-1.311-4.15-4.129-4.15-1.572 0-2.861.764-3.429 1.944-.655-1.18-1.791-1.944-3.604-1.944-1.201 0-2.315.546-2.97 1.42l-.131-1.049H66v10.921h3.386zM0 20C0 10.572 0 5.858 2.929 2.929 5.858 0 10.572 0 20 0s14.142 0 17.071 2.929C40 5.858 40 10.572 40 20s0 14.142-2.929 17.071C34.142 40 29.428 40 20 40S5.858 40 2.929 37.071C0 34.142 0 29.428 0 20z"><path fill="#2DF8BB" d="M24 26c.552 0 1.01.452.9.993a5 5 0 0 1-9.8 0c-.11-.54.348-.993.9-.993h8zm2.102-8.224c-.533.143-.86.701-.59 1.183a4 4 0 1 0 .626-4.754c-.386.395-.214 1.019.264 1.295l.507.293c.772.445.62 1.601-.241 1.832l-.566.151zm-12.204 0c.533.143.86.701.59 1.183a4 4 0 1 1-.626-4.754c.386.395.214 1.019-.264 1.295l-.507.293c-.772.445-.62 1.601.24 1.832l.567.151z"></g><defs><clipPath id="a"><path fill="#fff" d="M0 0h111v40H0z"></clipPath></defs></svg>