<svg xmlns="http://www.w3.org/2000/svg" width="109" height="42" fill="none"><g clip-path="url(#a)"><path fill="#4845D2" fill-rule="evenodd" d="M24.605 1.724a3.824 3.824 0 0 0-5.409.001L6.736 14.192l-.012-.003-.039.004.048.023c-2.186.23-3.114.886-3.124 1.73.004.313.132.652.369 1.004l-.012.012c1.988 2.997 11.833 6.95 18.798 4.272-5.22 2.61-17.514 3.127-21.124-1.94a3.816 3.816 0 0 0-.99 3.034c.955 5.257 11.619 6.692 22.283-.926l2.308 2.308c-2.872 2.95-7.113 20.087-.81 17.47.149-.101.276-.192.448-.323l.281-.265-.048.012 16.88-15.936a3.824 3.824 0 0 0 .078-5.485L24.605 1.724zm-1.839 5.193.577-2.307.577 2.307 1.731.577-1.73.577-.578 2.308-.577-2.308-1.73-.577 1.73-.577zm-7.14 7.534.384-1.539.385 1.539 1.154.384-1.154.385-.385 1.539-.385-1.539-1.153-.385 1.154-.384zM29.02 27.428l-.384 1.538-1.154.385 1.154.384.384 1.539.385-1.539 1.154-.384-1.154-.385-.385-1.538z" clip-rule="evenodd"><path fill="#4845D2" d="M52.898 10.275h-3.582V26.44h9.916v-3.167h-6.334V10.276zm10.024 3.539c1.048 0 1.9-.852 1.9-1.922 0-1.07-.852-1.9-1.9-1.9-1.07 0-1.922.83-1.922 1.9 0 1.07.852 1.922 1.922 1.922zm-1.704 12.625h3.386V15.518h-3.386v10.92zM67 22.82c.087 2.206 1.835 3.735 4.587 3.735 2.643 0 4.478-1.398 4.478-3.648 0-1.616-.962-2.687-2.753-3.123l-1.944-.481c-.699-.175-1.135-.35-1.135-.917 0-.568.458-.94 1.135-.94.765 0 1.267.503 1.245 1.245h3.037C75.562 16.42 73.837 15 71.434 15c-2.425 0-4.237 1.442-4.237 3.626 0 1.463.808 2.665 2.97 3.232l1.922.503c.568.153.808.415.808.786 0 .546-.502.896-1.354.896-.983 0-1.507-.459-1.507-1.223H67zm15.019 3.385c1.333 0 2.665-.611 3.342-1.507l.219 1.223h3.167V15h-3.364v5.679c0 1.638-.481 2.534-2.031 2.534-1.202 0-1.988-.546-1.988-2.578V15H78v6.858c0 2.6 1.442 4.347 4.019 4.347zm12.367.087V20.33c0-1.834.983-2.358 1.944-2.358 1.07 0 1.769.655 1.769 2.009v6.312h3.32V20.33c0-1.856.961-2.38 1.922-2.38 1.07 0 1.791.655 1.791 2.031v6.312h3.277V19.15c0-2.49-1.311-4.15-4.129-4.15-1.572 0-2.861.764-3.429 1.944-.655-1.18-1.791-1.944-3.604-1.944-1.201 0-2.315.546-2.97 1.42l-.131-1.049H91v10.921h3.386z"><path fill="#A3A2FF" fill-rule="evenodd" d="M43.292 3.251a12.16 12.16 0 0 0-9.342 4.375l-8.219 9.863 4.746-7.119-7.878 3.377a1.539 1.539 0 0 0-.482 2.502l2.536 2.535-1.295 1.553 2.848 2.848 1.553-1.295 2.535 2.535c.77.77 2.074.519 2.502-.481l3.377-7.878-7.12 4.746 9.863-8.22a12.16 12.16 0 0 0 4.376-9.34zm-7.831 7.831a2.014 2.014 0 1 0 2.847-2.847 2.014 2.014 0 0 0-2.847 2.847z" clip-rule="evenodd"><path fill="#424242" d="M1.548 19.16c1.885 6.46 13.348 6.124 21.213 2.075-5.266 2.631-17.724 3.134-21.213-2.074zM24.43 41.18c-5.31 2.205-3.135-9.616-.6-15.155-1.848 4.924-3.425 15.779 1.33 14.567l-.28.265c-.174.131-.3.222-.45.323z" opacity=".6"></g><defs><clipPath id="a"><path fill="#fff" d="M0 0h109v42H0z"></clipPath></defs></svg>